<?xml version="1.0" encoding="UTF-8" standalone="no"?>
<!DOCTYPE svg PUBLIC "-//W3C//DTD SVG 1.1//EN" "http://www.w3.org/Graphics/SVG/1.1/DTD/svg11.dtd">
<svg width="100%" height="100%" viewBox="0 0 600 100" version="1.1" xmlns="http://www.w3.org/2000/svg" xmlns:xlink="http://www.w3.org/1999/xlink" xml:space="preserve" xmlns:serif="http://www.serif.com/" style="fill-rule:evenodd;clip-rule:evenodd;stroke-linecap:round;stroke-linejoin:round;stroke-miterlimit:1.5;">
    <g transform="matrix(1.5,0,0,1,-5,0)">
        <rect x="10" y="10" width="40" height="80"/>
    </g>
    <g transform="matrix(0.5,0,0,0.5,45,5)">
        <circle cx="50" cy="50" r="40"/>
    </g>
    <g transform="matrix(0.5,0,0,0.5,45,45)">
        <circle cx="50" cy="50" r="40"/>
    </g>
    <g transform="matrix(1,0,0,1,10,0)">
        <circle cx="140" cy="50" r="40"/>
    </g>
    <g transform="matrix(1,0,0,1,10,0)">
        <rect x="100" y="10" width="80" height="40"/>
    </g>
    <g transform="matrix(0,-1,1,0,500,190)">
        <circle cx="140" cy="50" r="40"/>
    </g>
    <g transform="matrix(0,-1,1,0,500,190)">
        <rect x="100" y="10" width="80" height="40"/>
    </g>
    <g transform="matrix(0,-1,1,0,200,260)">
        <path d="M210,50C210,27.923 227.923,10 250,10L250,50L210,50Z"/>
        <path d="M209,50C209,27.371 227.371,9 250,9C250.552,9 251,9.448 251,10L251,50C251,50.552 250.552,51 250,51L210,51C209.448,51 209,50.552 209,50ZM210,50L250,50L250,10C227.923,10 210,27.923 210,50Z" style="fill-opacity:0;"/>
    </g>
    <g transform="matrix(0,1,-1,0,300,-160)">
        <path d="M210,50C210,27.923 227.923,10 250,10L250,50L210,50Z"/>
        <path d="M209,50C209,27.371 227.371,9 250,9C250.552,9 251,9.448 251,10L251,50C251,50.552 250.552,51 250,51L210,51C209.448,51 209,50.552 209,50ZM210,50L250,50L250,10C227.923,10 210,27.923 210,50Z" style="fill-opacity:0;"/>
    </g>
    <g transform="matrix(1,0,0,1,40,0)">
        <path d="M370,50C370,27.923 387.923,10 410,10C432.077,10 450,27.923 450,50L370,50Z"/>
    </g>
    <g transform="matrix(0,-1,1,0,400,460)">
        <path d="M370,50C370,27.923 387.923,10 410,10C432.077,10 450,27.923 450,50L370,50Z"/>
    </g>
    <circle cx="550" cy="50" r="30" style="fill:white;"/>
    <circle cx="550" cy="50" r="10"/>
    <path d="M530,50C530,50 530.526,41.165 536,36C542.443,29.921 550,30 550,30" style="fill-opacity:0;stroke:black;stroke-width:11.49px;"/>
    <g transform="matrix(1,0,0,1,-1,-1)">
        <path d="M565,65L566,64" style="fill:none;stroke:black;stroke-width:11.49px;"/>
    </g>
    <rect x="250" y="10" width="40" height="40"/>
    <g transform="matrix(1,0,0,1,-40,40)">
        <rect x="250" y="10" width="40" height="40"/>
    </g>
    <g transform="matrix(0,-1,1,0,300,260)">
        <path d="M210,50C210,27.923 227.923,10 250,10L250,50L210,50Z"/>
        <path d="M209,50C209,27.371 227.371,9 250,9C250.552,9 251,9.448 251,10L251,50C251,50.552 250.552,51 250,51L210,51C209.448,51 209,50.552 209,50ZM210,50L250,50L250,10C227.923,10 210,27.923 210,50Z" style="fill-opacity:0;"/>
    </g>
    <g transform="matrix(0,-1,1,0,400,300)">
        <path d="M210,50C210,27.923 227.923,10 250,10L250,50L210,50Z"/>
        <path d="M209,50C209,27.371 227.371,9 250,9C250.552,9 251,9.448 251,10L251,50C251,50.552 250.552,51 250,51L210,51C209.448,51 209,50.552 209,50ZM210,50L250,50L250,10C227.923,10 210,27.923 210,50Z" style="fill-opacity:0;"/>
    </g>
    <g transform="matrix(0,1,-1,0,400,-160)">
        <path d="M210,50C210,27.923 227.923,10 250,10L250,50L210,50Z"/>
        <path d="M209,50C209,27.371 227.371,9 250,9C250.552,9 251,9.448 251,10L251,50C251,50.552 250.552,51 250,51L210,51C209.448,51 209,50.552 209,50ZM210,50L250,50L250,10C227.923,10 210,27.923 210,50Z" style="fill-opacity:0;"/>
    </g>
    <g transform="matrix(1,0,0,1,100,0)">
        <rect x="250" y="10" width="40" height="40"/>
    </g>
    <g transform="matrix(1,0,0,1,60,40)">
        <rect x="250" y="10" width="40" height="40"/>
    </g>
</svg>
